<svg xmlns="http://www.w3.org/2000/svg" viewBox="0 0 144.45 85.52"><defs><style>.b9d2c850-74c1-40f8-abe1-4ffa019ff8a9,.f9508d04-1db1-4089-a56d-7d3fdb30f1e1{fill:#21409a;}.f9508d04-1db1-4089-a56d-7d3fdb30f1e1{fill-rule:evenodd;}</style></defs><g id="ef6119e0-904d-42c7-b4e6-324c46b57b5d" data-name="Layer 2"><g id="a16c6d67-584d-4b5a-b833-fee202833b22" data-name="Layer 1"><path id="b8c71711-3b4e-4cc8-8bd4-4c492aac69fb" data-name="path5" class="f9508d04-1db1-4089-a56d-7d3fdb30f1e1" d="M2.37,24.39A158.75,158.75,0,0,0,23.58,55.61C31,64,39.15,69.43,48.76,71.94c27.85,7.25,61.29-21.16,61.29-21.16l-8.66-13.27,36.48,5-9.7,36.09-7.2-11S87.05,94,51.86,82.74C31,76.07,14.08,56.43,0,26a11.43,11.43,0,0,1,2.37-1.64Z"/><path class="b9d2c850-74c1-40f8-abe1-4ffa019ff8a9" d="M19.64,26.38a75.65,75.65,0,0,1,6.53-5.93c4.38-3.61,8.33-4.88,9.9-2.48s-.86,5.34-4.85,8.63c-1.46,1.2-2.18,1.83-3.59,3.13L31.58,34c-.89.82-1.33,1.25-2.2,2.12ZM30,25.8c3.09-2.57,4.41-4.49,3.37-5.95s-3.35-.71-6.64,2c-1.41,1.18-2.11,1.79-3.48,3.06l3.47,3.75C28,27.49,28.61,26.92,30,25.8Zm.47.84c.55-.93.83-1.4,1.42-2.32a60.67,60.67,0,0,1,10.24,1.55C41,26.6,40.4,27,39.3,27.75A60.19,60.19,0,0,0,30.42,26.64Z"/><path class="b9d2c850-74c1-40f8-abe1-4ffa019ff8a9" d="M38.69,11.82A73.8,73.8,0,0,1,52.75,5.33l.5,1.39A72.9,72.9,0,0,0,42.4,11.48l2,3.83a70.12,70.12,0,0,1,8.68-3.91l.53,1.38a69.78,69.78,0,0,0-8.52,3.85c.92,1.78,1.39,2.66,2.31,4.44a64.94,64.94,0,0,1,9.86-4.29l.5,1.4a63,63,0,0,0-12.23,5.61C42.78,19,41.42,16.6,38.69,11.82Z"/><path class="b9d2c850-74c1-40f8-abe1-4ffa019ff8a9" d="M63.78,2.14c1.49-.33,2.23-.48,3.73-.75A77.78,77.78,0,0,1,77.44,14c-1.21.09-1.81.15-3,.29a79.59,79.59,0,0,0-5.15-7C68.15,5.89,67.08,4.55,66,3.15l-.16,0c-.48,1.73-1,3.37-1.47,5.07a82.13,82.13,0,0,0-2.1,8.49c-1.12.32-1.67.5-2.78.86A78.42,78.42,0,0,1,63.78,2.14Zm-2,8.91A67.58,67.58,0,0,1,72.66,8.88l.18,1.38A67.43,67.43,0,0,0,62.17,12.4Z"/><path class="b9d2c850-74c1-40f8-abe1-4ffa019ff8a9" d="M79.94.06C81.28,0,82,0,83.3,0V12.3a64.55,64.55,0,0,1,9.92.62c-.08.59-.11.89-.19,1.48a64.47,64.47,0,0,0-12.57-.57C80.25,8.33,80.15,5.57,79.94.06Z"/><path class="b9d2c850-74c1-40f8-abe1-4ffa019ff8a9" d="M104.08,9.46c1.1-4.28,6.36-5.83,12.62-3.34s9.12,7.28,7,11.14-7,4.23-12.26,2.13S103,13.73,104.08,9.46Zm16.7,6.26c1.55-3.07-.27-6.43-4.65-8.17s-7.95-.52-8.94,2.77,1,6.12,4.81,7.64S119.24,18.79,120.78,15.72Z"/><path class="b9d2c850-74c1-40f8-abe1-4ffa019ff8a9" d="M132,14.28a74.89,74.89,0,0,1,7,5c4.44,3.51,6.66,7.21,4.65,9.26s-5.52.19-9.57-3c-1.48-1.16-2.23-1.72-3.76-2.79L127,27.52c-1-.68-1.46-1-2.45-1.65Zm2.61,9.86c3.15,2.46,5.36,3.38,6.56,2.06s-.07-3.48-3.42-6.1c-1.45-1.12-2.18-1.67-3.67-2.71-1.17,1.68-1.75,2.52-2.93,4.19C132.59,22.56,133.28,23.07,134.64,24.14Zm-.72.63c1,.34,1.54.52,2.56.89a68.25,68.25,0,0,1,.8,10.47c-1-1-1.49-1.47-2.5-2.4A67.51,67.51,0,0,0,133.92,24.77Z"/><path class="b9d2c850-74c1-40f8-abe1-4ffa019ff8a9" d="M37.46,44.2a54.58,54.58,0,0,1,8.89-7.44L47.19,38a53.84,53.84,0,0,0-6.85,5.51l3.15,3.42a48,48,0,0,1,5.35-4.4l.87,1.2A46.69,46.69,0,0,0,44.5,48l4.18,4.53c-.6.55-.9.83-1.48,1.41C43.3,50.05,41.36,48.1,37.46,44.2Z"/><path class="b9d2c850-74c1-40f8-abe1-4ffa019ff8a9" d="M49.25,34.86a53.27,53.27,0,0,1,10-5l.55,1.38a51.39,51.39,0,0,0-7.67,3.68l2.12,3.76a48.51,48.51,0,0,1,6-3L60.84,37A48.24,48.24,0,0,0,55,39.93l2.47,4.36A43.05,43.05,0,0,1,64,41.15l.55,1.38a42.78,42.78,0,0,0-8.09,4Z"/><path class="b9d2c850-74c1-40f8-abe1-4ffa019ff8a9" d="M63.35,28.34c.93-.3,1.39-.44,2.33-.71.75,2.67,1.13,4,1.88,6.66l.07,0a48.51,48.51,0,0,1,5.87-8.33c1.09-.16,1.63-.23,2.72-.35a49.24,49.24,0,0,0-4.84,6.06,48.19,48.19,0,0,1,7.07,7.56c-.85.08-1.27.13-2.12.25a47.15,47.15,0,0,0-6-6.18c-.89,1.36-1.31,2-2.09,3.43.48,1.67.71,2.51,1.19,4.19-.74.21-1.11.32-1.84.55C65.89,36.21,65,33.59,63.35,28.34Z"/><path class="b9d2c850-74c1-40f8-abe1-4ffa019ff8a9" d="M79.85,25.29a54.74,54.74,0,0,1,10.93.34c-.07.59-.1.88-.17,1.47a53.88,53.88,0,0,0-8.32-.41c0,1.73,0,2.59.07,4.32a51,51,0,0,1,6.54.25c-.05.6-.08.89-.14,1.48a48.49,48.49,0,0,0-6.38-.25c0,2,.05,3,.08,5a44.85,44.85,0,0,1,7.14.37c-.07.59-.1.88-.18,1.47a42.77,42.77,0,0,0-8.83-.29C80.29,33.55,80.14,30.8,79.85,25.29Z"/></g></g></svg>